<svg xmlns="http://www.w3.org/2000/svg" viewBox="8 34 1023 210" role="img" aria-label="Rohi Capital Limited">
<path fill="#02df82" fill-rule="evenodd" d="M101.6,235.5C101.3,234.6 101.0,214.1 101.0,189.9L101.0,146.0L71.8,146.0L42.6,146.0L29.3,132.2C22.0,124.7 16.0,117.9 16.0,117.2C16.0,116.2 27.8,116.0 73.2,116.2L130.5,116.5L130.7,162.5L131.0,208.5L116.6,222.8C105.4,234.0 102.1,236.8 101.6,235.5ZM138.0,154.5L138.0,109.0L133.8,109.0C131.4,108.9 118.7,108.9 105.6,109.0L81.6,109.1L67.8,95.3C60.2,87.7 54.0,81.0 54.0,80.3C54.0,79.3 65.7,79.0 111.0,79.0L168.0,79.0L168.0,125.3L168.0,171.7L164.2,175.2C162.2,177.2 159.8,179.6 158.9,180.6C155.6,184.4 139.3,200.0 138.7,200.0C138.3,200.0 138.0,179.5 138.0,154.5ZM175.0,117.6L175.0,72.0L146.6,72.0C123.5,72.0 117.9,71.7 116.8,70.6C116.1,69.8 109.7,63.3 102.6,56.1C93.9,47.3 90.1,42.9 91.1,42.5C91.9,42.2 117.7,42.1 148.5,42.2L204.5,42.5L204.8,89.0L205.0,135.5L200.5,140.0C197.9,142.5 192.4,147.9 188.2,152.1C184.0,156.3 179.3,160.5 177.8,161.5L175.0,163.2L175.0,117.6Z"/>
<path fill="#030f0f" fill-rule="evenodd" d="M859.7,232.4C859.3,232.0 859.0,223.6 859.0,213.8L859.0,195.9L862.2,196.2L865.5,196.5L865.8,211.2L866.1,225.9L873.8,226.2L881.5,226.5L881.5,229.5L881.5,232.5L870.9,232.8C865.1,232.9 860.1,232.7 859.7,232.4ZM884.7,232.3C884.3,232.0 884.0,225.9 884.0,218.8L884.0,206.0L887.0,206.0L890.0,206.0L890.0,219.5C890.0,233.0 890.0,233.0 887.7,233.0C886.4,233.0 885.0,232.7 884.7,232.3ZM894.0,219.6L894.0,206.0L897.0,206.0C898.6,206.0 900.0,206.4 900.0,206.9C900.0,207.4 901.4,207.2 903.1,206.3C906.7,204.5 912.3,205.1 915.1,207.6C916.9,209.2 917.1,209.2 918.9,207.6C921.7,205.1 927.2,204.5 930.7,206.3C935.0,208.6 936.1,212.2 935.8,223.1C935.5,232.4 935.5,232.5 933.0,232.5C930.5,232.5 930.5,232.3 930.0,223.2C929.6,215.5 929.1,213.6 927.5,212.4C925.1,210.6 922.9,210.6 920.4,212.4C918.8,213.6 918.4,215.4 918.0,223.2C917.5,232.5 917.5,232.5 914.8,232.8L912.0,233.1L912.0,224.1C912.0,216.3 911.7,214.7 910.0,213.0C907.6,210.6 905.1,210.5 902.4,212.4C900.8,213.6 900.4,215.4 900.0,223.2C899.5,232.5 899.5,232.5 896.8,232.8L894.0,233.1L894.0,219.6ZM940.7,232.4C940.3,232.0 940.0,225.9 940.0,218.8L940.0,206.0L943.0,206.0L946.1,206.0L945.8,219.2C945.5,231.7 945.4,232.5 943.5,232.8C942.3,233.0 941.1,232.8 940.7,232.4ZM959.9,232.3C955.0,231.5 953.5,228.7 953.1,219.4C952.8,211.9 952.6,211.0 950.9,211.0C948.1,211.0 948.4,206.7 951.2,205.5C952.6,204.9 953.6,203.4 953.8,201.8C954.1,199.5 954.6,199.0 956.9,199.0C959.3,199.0 959.6,199.4 959.5,202.2C959.5,205.2 959.8,205.5 962.8,205.8C965.4,206.1 966.0,206.6 966.0,208.5C966.0,210.4 965.4,210.9 962.8,211.2C960.1,211.5 959.6,212.0 959.3,214.5C959.0,216.2 959.1,219.4 959.5,221.8C960.1,225.5 960.5,226.2 963.1,226.7C965.6,227.2 966.1,227.7 965.8,229.9C965.5,232.6 964.4,233.0 959.9,232.3ZM972.9,230.7C963.6,224.5 964.2,211.8 974.1,206.8C980.7,203.4 988.5,205.5 992.7,211.9C995.2,215.6 995.8,221.0 993.8,221.0C993.1,221.1 988.3,221.1 983.3,221.1C978.2,221.1 973.8,221.5 973.5,221.9C973.3,222.3 974.0,223.7 975.1,224.8C977.5,227.4 984.1,227.8 986.0,225.5C987.6,223.6 994.0,223.5 994.0,225.3C994.0,226.1 993.0,227.6 991.8,228.8C986.7,233.5 978.4,234.4 972.9,230.7ZM1002.3,231.0C998.3,228.6 996.0,224.3 996.0,219.3C996.0,209.0 1005.9,202.1 1014.4,206.5C1015.9,207.3 1017.4,208.0 1017.6,208.0C1017.8,208.0 1018.0,205.1 1018.0,201.5L1018.0,195.0L1021.0,195.0L1024.0,195.0L1024.0,214.0L1024.0,233.0L1021.5,233.0C1020.1,233.0 1018.7,232.3 1018.4,231.5C1017.9,230.2 1017.5,230.2 1015.0,231.5C1011.0,233.6 1006.1,233.4 1002.3,231.0ZM1015.5,224.5C1017.1,223.0 1018.0,220.9 1018.0,219.0C1018.0,215.2 1014.1,211.0 1010.7,211.0C1007.5,211.0 1003.4,214.3 1002.6,217.5C1001.9,220.2 1004.1,225.5 1006.2,226.3C1009.4,227.6 1013.2,226.9 1015.5,224.5ZM742.0,160.0L742.0,103.0L749.0,103.0L756.0,103.0L756.0,110.0L756.0,116.9L760.5,112.4C779.5,93.4 813.4,99.6 825.0,124.1C837.2,149.9 824.6,179.7 798.6,186.6C784.3,190.4 768.2,185.9 759.0,175.4L756.0,171.9L756.0,194.5L756.0,217.0L749.0,217.0L742.0,217.0L742.0,160.0ZM987.4,214.5C985.8,210.4 978.5,209.8 975.0,213.5L972.7,216.0L980.3,216.0C986.7,216.0 987.8,215.8 987.4,214.5ZM884.0,200.5C881.4,197.3 885.3,192.4 888.8,194.6C891.2,196.2 891.5,199.1 889.4,200.7C887.1,202.4 885.5,202.3 884.0,200.5ZM940.6,200.5C939.7,199.6 939.0,198.5 939.0,198.0C939.0,196.5 942.2,193.9 943.8,194.2C946.2,194.7 947.7,197.7 946.4,199.8C944.9,202.1 942.6,202.4 940.6,200.5ZM357.0,188.0C347.6,186.3 341.1,183.0 334.6,176.6C326.9,169.1 323.4,162.1 321.8,151.4C317.3,120.5 341.2,96.4 371.8,100.9C396.1,104.5 411.1,125.4 407.9,151.4C405.6,169.8 392.8,183.6 374.3,187.5C366.9,189.1 363.9,189.2 357.0,188.0ZM569.2,186.0C558.7,183.2 550.5,178.5 542.9,170.9C521.3,149.4 520.6,113.3 541.3,90.5C547.5,83.7 554.9,78.9 564.8,75.3C573.9,71.9 589.7,71.0 599.0,73.4C615.7,77.6 629.4,88.1 636.3,101.9C641.7,112.6 641.6,113.0 632.6,113.0L625.2,113.0L622.2,107.8C608.5,83.4 574.6,78.9 554.3,98.7C533.5,118.9 539.3,156.8 565.1,169.0C586.6,179.2 610.9,172.0 622.2,152.2L625.2,147.0L632.6,147.0C641.5,147.0 641.6,147.2 636.5,157.5C630.3,170.0 617.6,180.8 604.1,185.1C594.3,188.2 578.6,188.6 569.2,186.0ZM672.8,186.1C654.6,180.1 644.0,164.8 644.0,144.4C644.0,134.0 646.5,125.9 652.1,118.0C666.3,98.1 694.9,95.4 712.4,112.2C715.1,114.8 717.4,117.0 717.5,117.0C717.6,117.0 717.6,114.0 717.6,110.2L717.5,103.5L724.5,103.5L731.5,103.5L731.8,144.8L732.0,186.0L724.6,186.0L717.1,186.0L717.3,179.1L717.5,172.2L711.8,177.5C704.5,184.3 697.3,187.2 686.5,187.6C680.6,187.9 677.0,187.5 672.8,186.1ZM940.0,186.6C923.9,182.1 912.7,168.9 910.0,151.4C907.3,133.6 915.5,115.2 930.1,106.7C945.4,97.7 966.2,100.2 978.5,112.4L983.0,116.9L983.0,110.0L983.0,103.0L990.0,103.0L997.0,103.0L997.0,144.5L997.0,186.0L990.0,186.0L983.0,186.0L983.0,179.0L983.0,171.9L980.0,175.4C970.9,185.7 954.0,190.5 940.0,186.6ZM232.0,127.9L232.0,69.9L264.8,70.2L297.5,70.5L303.6,73.3C315.8,79.0 322.3,88.9 322.4,102.0C322.5,114.8 317.8,122.7 306.8,128.0L301.2,130.7L304.6,131.9C306.5,132.6 309.8,134.8 311.9,136.8C316.9,141.6 318.6,147.4 320.0,165.5C320.7,173.3 321.8,180.8 322.6,182.4C323.4,184.0 324.0,185.5 324.0,185.7C324.0,185.8 318.8,186.0 312.5,186.0C298.7,186.0 299.7,187.3 298.0,167.9C295.8,143.3 292.1,139.8 268.2,139.6L255.5,139.5L255.2,162.8L255.0,186.0L243.5,186.0L232.0,186.0L232.0,127.9ZM411.0,128.0L411.0,70.0L422.0,70.0L433.0,70.0L433.0,91.5C433.0,103.3 433.2,113.0 433.5,113.0C433.8,113.0 435.6,111.2 437.6,109.1C443.0,103.0 449.0,100.5 458.0,100.6C470.3,100.7 478.8,106.0 484.2,116.8C486.4,121.4 486.5,122.3 486.8,153.8L487.1,186.0L476.1,186.0L465.0,186.0L465.0,158.8C465.0,134.1 464.8,131.1 463.1,127.3C460.5,121.7 456.5,119.7 448.8,120.2C443.8,120.6 442.5,121.1 439.5,124.0C433.7,129.6 433.0,133.8 433.0,161.7L433.0,186.0L422.0,186.0L411.0,186.0L411.0,128.0ZM491.0,144.5L491.0,103.0L502.5,103.0L514.0,103.0L514.0,144.5L514.0,186.0L502.5,186.0L491.0,186.0L491.0,144.5ZM835.0,144.5L835.0,103.0L842.0,103.0L849.0,103.0L849.0,144.5L849.0,186.0L842.0,186.0L835.0,186.0L835.0,144.5ZM890.3,184.6C884.1,182.6 880.5,179.5 877.6,173.8C875.0,168.6 875.0,168.6 875.0,142.3L875.0,116.0L867.0,116.0L859.0,116.0L859.0,109.5L859.0,103.0L865.4,103.0C874.5,103.0 875.0,102.3 875.0,89.9L875.0,80.0L882.0,80.0L889.0,80.0L889.0,91.5L889.0,103.0L900.0,103.0L911.0,103.0L911.0,109.5L911.0,116.0L900.0,116.0L889.0,116.0L889.0,140.1C889.0,161.0 889.2,164.6 890.7,167.1C893.1,171.1 897.7,173.0 904.9,173.0L911.0,173.0L911.0,179.5L911.0,186.0L902.8,185.9C898.2,185.9 892.6,185.3 890.3,184.6ZM1008.0,127.5L1008.0,69.0L1015.0,69.0L1022.0,69.0L1022.0,127.5L1022.0,186.0L1015.0,186.0L1008.0,186.0L1008.0,127.5ZM698.9,172.3C704.4,170.3 711.4,164.0 714.2,158.5C717.2,152.9 717.8,140.9 715.6,134.2C713.4,127.8 707.7,121.2 701.4,118.0C697.2,115.9 695.1,115.5 687.5,115.5C680.1,115.5 677.7,115.9 674.3,117.8C668.5,120.8 663.2,126.4 660.6,131.9C657.7,138.3 657.7,150.7 660.6,157.1C667.4,171.7 683.1,177.9 698.9,172.3ZM792.5,173.5C800.3,172.2 807.6,166.6 811.8,158.6C814.1,154.2 814.5,152.3 814.5,144.5C814.5,136.4 814.2,135.0 811.5,130.2C808.3,124.3 804.9,121.1 798.6,117.7C795.3,115.9 792.8,115.5 785.5,115.5C775.7,115.5 770.6,117.3 764.7,122.8C757.2,129.8 753.9,144.3 757.4,154.8C759.3,160.4 765.6,168.2 770.4,170.7C774.1,172.7 783.7,174.9 786.5,174.4C787.6,174.3 790.3,173.8 792.5,173.5ZM966.3,171.7C972.4,169.1 979.3,161.5 981.6,154.8C982.8,151.2 983.1,147.7 982.8,142.6C982.0,131.4 976.6,122.7 967.3,118.0C963.3,115.9 961.1,115.5 953.5,115.5C945.4,115.5 944.0,115.8 939.1,118.5C922.3,127.8 918.9,151.6 932.4,165.8C940.4,174.3 954.3,176.8 966.3,171.7ZM374.1,169.4C386.6,163.1 390.1,138.9 380.6,125.1C377.2,120.3 373.1,118.0 366.6,117.3C352.8,115.9 344.0,126.5 344.0,144.4C344.0,154.7 346.1,161.1 351.1,166.1C356.8,171.8 366.7,173.2 374.1,169.4ZM290.6,119.1C296.7,116.3 299.5,111.8 299.5,104.8C299.5,98.6 297.8,95.4 292.6,91.6C290.1,89.7 288.2,89.5 272.4,89.2L255.0,88.9L255.0,104.9L255.0,121.0L270.8,121.0C283.9,121.0 287.2,120.7 290.6,119.1ZM491.7,89.4C491.3,89.0 491.0,84.5 491.0,79.3L491.0,70.0L502.5,70.0L514.1,70.0L513.8,79.8L513.5,89.5L502.9,89.8C497.1,89.9 492.1,89.7 491.7,89.4ZM835.5,84.5C833.6,82.7 833.0,81.0 833.0,78.0C833.0,72.4 836.4,69.0 842.0,69.0C847.6,69.0 851.0,72.4 851.0,78.0C851.0,83.6 847.6,87.0 842.0,87.0C839.0,87.0 837.3,86.4 835.5,84.5Z"/>
</svg>